<?xml version="1.0" encoding="UTF-8" standalone="no"?>
<svg
   width="192px"
   height="192px"
   viewBox="0 0 192 192"
   version="1.1"
   id="svg139"
   sodipodi:docname="logo-invrtir-charts.svg"
   x="0px"
   y="0px"
   xml:space="preserve"
   inkscape:version="1.1 (ce6663b3b7, 2021-05-25)"
   enable-background="new 0 0 192 192"
   xmlns:inkscape="http://www.inkscape.org/namespaces/inkscape"
   xmlns:sodipodi="http://sodipodi.sourceforge.net/DTD/sodipodi-0.dtd"
   xmlns="http://www.w3.org/2000/svg"
   xmlns:svg="http://www.w3.org/2000/svg"><sodipodi:namedview
   id="namedview141"
   pagecolor="#ffffff"
   bordercolor="#666666"
   borderopacity="1.0"
   inkscape:pageshadow="2"
   inkscape:pageopacity="0.0"
   inkscape:pagecheckerboard="0"
   showgrid="false"
   inkscape:zoom="2.7708333"
   inkscape:cx="156.81203"
   inkscape:cy="96.180452"
   inkscape:window-width="1366"
   inkscape:window-height="704"
   inkscape:window-x="0"
   inkscape:window-y="27"
   inkscape:window-maximized="1"
   inkscape:current-layer="svg139" />
    <g
   transform="matrix(1,0,0,1,-45937.1,-32052.6)"
   id="g104">
        <g
   opacity="0.3"
   id="g102">
            <g
   transform="matrix(0.16099,0,0,0.16099,45997.7,32188.6)"
   id="g4">
                <path
   d="M0,187.061L-45.83,187.061L-45.83,86.516C-45.83,80.903 -46.883,75.644 -48.987,70.732C-51.091,65.822 -53.978,61.576 -57.639,57.989C-61.303,54.405 -65.588,51.558 -70.499,49.453C-75.41,47.349 -80.593,46.297 -86.048,46.297C-91.661,46.297 -96.921,47.349 -101.832,49.453C-106.743,51.558 -111.068,54.405 -114.809,57.989C-118.55,61.576 -121.473,65.822 -123.578,70.732C-125.682,75.644 -126.735,80.903 -126.735,86.516L-126.735,187.061L-172.565,187.061L-172.565,86.516C-172.565,74.67 -170.306,63.483 -165.784,52.961C-161.265,42.44 -155.067,33.244 -147.193,25.369C-139.324,17.499 -130.166,11.303 -119.72,6.781C-109.278,2.262 -98.054,0 -86.048,0C-74.204,0 -63.017,2.262 -52.494,6.781C-41.972,11.303 -32.853,17.499 -25.137,25.369C-17.42,33.244 -11.305,42.44 -6.781,52.961C-2.262,63.483 0,74.67 0,86.516L0,187.061Z"
   style="fill:rgb(0,19,59);fill-rule:nonzero;"
   id="path2" />
            </g>
            <g
   transform="matrix(0.16099,0,0,0.16099,46027.5,32216.4)"
   id="g8">
                <path
   d="M0,-158.843L-95.123,14.109L-170.884,-137.41L-145.617,-162.676C-141.021,-167.271 -133.275,-166.014 -130.369,-160.201L-93.253,-85.969L-45.553,-172.952L-8.342,-172.952C-1.101,-172.952 3.49,-165.188 0,-158.843"
   style="fill:rgb(0,19,59);fill-rule:nonzero;"
   id="path6" />
            </g>
            <g
   transform="matrix(0.16099,0,0,0.16099,46050.7,32216.5)"
   id="g12">
                <path
   d="M0,-168.258C-2.517,-169.122 -5.074,-169.889 -7.673,-170.559C-15.236,-172.508 -22.989,-173.483 -30.94,-173.483C-44.034,-173.483 -56.35,-170.987 -67.884,-166C-71.971,-164.232 -75.862,-162.223 -79.576,-159.997L-79.576,-169.445C-79.576,-177.686 -89.521,-181.836 -95.379,-176.037L-123.124,-148.573C-124.883,-146.831 -125.874,-144.457 -125.874,-141.981L-125.874,3.694C-125.874,9.153 -121.448,13.578 -115.989,13.578L-89.927,13.578C-84.468,13.578 -80.042,9.153 -80.042,3.694L-80.042,-11.003C-79.743,-11.914 -79.576,-12.884 -79.576,-13.896L-79.576,-84.751C-78.984,-89.032 -77.824,-93.164 -76.068,-97.139C-73.419,-103.138 -69.872,-108.363 -65.429,-112.805C-60.986,-117.248 -55.806,-120.755 -49.879,-123.327C-43.958,-125.9 -37.643,-127.185 -30.94,-127.185C-29.226,-127.185 -27.589,-127.144 -26.029,-127.068C-25.982,-127.066 -25.936,-127.063 -25.889,-127.06C-22.928,-126.886 -20.016,-127.841 -17.933,-129.953L3.793,-151.963C8.899,-157.136 6.875,-165.899 0,-168.258"
   style="fill:rgb(255,153,0);fill-rule:nonzero;"
   id="path10" />
            </g>
            <g
   transform="matrix(0.16099,0,0,0.16099,46107.5,32216.5)"
   id="g16">
                <path
   d="M0,-168.258C-2.517,-169.122 -5.074,-169.889 -7.673,-170.559C-15.236,-172.508 -22.989,-173.483 -30.94,-173.483C-44.034,-173.483 -56.35,-170.987 -67.884,-166C-71.971,-164.232 -75.862,-162.223 -79.576,-159.997L-79.576,-169.445C-79.576,-177.686 -89.521,-181.836 -95.379,-176.037L-123.124,-148.573C-124.883,-146.831 -125.874,-144.457 -125.874,-141.981L-125.874,3.694C-125.874,9.153 -121.448,13.578 -115.989,13.578L-89.927,13.578C-84.468,13.578 -80.042,9.153 -80.042,3.694L-80.042,-11.003C-79.743,-11.914 -79.576,-12.884 -79.576,-13.896L-79.576,-84.752C-78.984,-89.033 -77.824,-93.165 -76.067,-97.139C-73.419,-103.138 -69.872,-108.363 -65.429,-112.805C-60.986,-117.248 -55.806,-120.755 -49.879,-123.327C-43.958,-125.9 -37.643,-127.185 -30.94,-127.185C-29.226,-127.185 -27.589,-127.144 -26.029,-127.068C-25.982,-127.066 -25.936,-127.063 -25.889,-127.06C-22.928,-126.886 -20.016,-127.841 -17.933,-129.953L3.793,-151.963C8.899,-157.136 6.875,-165.899 0,-168.258"
   style="fill:rgb(0,19,59);fill-rule:nonzero;"
   id="path14" />
            </g>
            <g
   transform="matrix(0.16099,0,0,0.16099,46067.7,32211.3)"
   id="g20">
                <path
   d="M0,-94.467L-13.931,-94.467C-17.805,-94.467 -20.945,-91.327 -20.945,-87.453L-20.945,39.283C-20.945,43.157 -24.085,46.297 -27.958,46.297L-60.229,46.297C-64.103,46.297 -67.243,43.157 -67.243,39.283L-67.243,-87.453C-67.243,-91.327 -70.383,-94.467 -74.256,-94.467L-86.025,-94.467C-92.133,-94.467 -95.322,-101.732 -91.188,-106.228L-61.516,-138.498C-60.188,-139.943 -58.315,-140.764 -56.353,-140.764L32.27,-140.764C38.519,-140.764 41.648,-133.21 37.229,-128.791L4.959,-96.521C3.644,-95.206 1.86,-94.467 0,-94.467"
   style="fill:rgb(0,19,59);fill-rule:nonzero;"
   id="path18" />
            </g>
            <g
   transform="matrix(0.16099,0,0,0.16099,45962.5,32217.8)"
   id="g24">
                <path
   d="M0,-214.06L-27.745,-186.596C-29.504,-184.854 -30.495,-182.48 -30.495,-180.003L-30.495,-3.478C-30.495,1.645 -26.342,5.798 -21.218,5.798L6.526,5.798C11.649,5.798 15.803,1.645 15.803,-3.478L15.803,-207.467C15.803,-215.709 5.857,-219.858 0,-214.06"
   style="fill:rgb(0,19,59);fill-rule:nonzero;"
   id="path22" />
            </g>
            <g
   transform="matrix(0.16099,0,0,0.16099,46081.6,32197.9)"
   id="g28">
                <path
   d="M0,-35.776C0,-44.018 -9.945,-48.167 -15.803,-42.369L-43.547,-14.905C-45.308,-13.163 -46.298,-10.789 -46.298,-8.312L-46.298,12.391L0,12.391L0,-35.776Z"
   style="fill:rgb(255,153,0);fill-rule:nonzero;"
   id="path26" />
            </g>
            <g
   transform="matrix(0.16099,0,0,0.16099,46074.2,32204)"
   id="g32">
                <path
   d="M0,82.064C0,87.187 4.153,91.34 9.277,91.34L37.021,91.34C42.145,91.34 46.298,87.187 46.298,82.064L46.298,-4.276L0,-4.276L0,82.064Z"
   style="fill:rgb(0,19,59);fill-rule:nonzero;"
   id="path30" />
            </g>
            <g
   transform="matrix(-32.4311,32.3835,32.3835,32.4311,46078,32101)"
   id="g36">
                <path
   d="M0.138,-0C0.22,0.066 0.387,-0.026 0.57,-0.141C0.702,-0.225 0.848,-0.312 1.001,-0.384C0.904,-0.175 0.837,0.046 0.853,0.264C0.805,0.29 0.742,0.316 0.671,0.34L0.671,0.34C0.303,0.335 0.113,-0.019 0.102,-0.04C0.113,-0.024 0.125,-0.011 0.138,-0Z"
   style="fill:url(#_Linear1);fill-rule:nonzero;"
   id="path34" />
            </g>
            <g
   transform="matrix(0.161456,0,0,0.161456,46058.9,32118)"
   id="g40">
                <path
   d="M0,119.362C14.82,114.763 32.813,107.428 51.972,98.044L51.948,98.034C81.254,67.949 93.428,32.295 97.38,0C40.768,29.574 -37.396,47.425 -74.517,58.396C-46.333,75.151 -20.843,95.146 0,119.362"
   style="fill:rgb(4,4,180);"
   id="path38" />
            </g>
            <g
   transform="matrix(-46.078,25.6898,25.6898,46.078,46061.7,32142.7)"
   id="g44">
                <path
   d="M0.848,-0.592C0.953,-0.321 0.724,-0.187 1.022,0.181C0.963,0.289 0.848,0.411 0.848,0.411C0.848,0.411 0.685,0.444 0.561,0.438C0.427,-0.043 0.848,-0.592 0.848,-0.592Z"
   style="fill:url(#_Linear2);fill-rule:nonzero;"
   id="path42" />
            </g>
            <g
   transform="matrix(-0.104317,0.123231,0.123231,0.104317,46048.1,32156.7)"
   id="g48">
                <path
   d="M101.747,-215.735C95.863,-233.938 87.407,-252.134 71.021,-270.569C71.021,-270.569 5.294,-54.154 101.747,77.454C140.286,65.261 186.415,36.261 186.415,36.261C186.415,36.261 64.151,-47.271 101.747,-215.735"
   style="fill:rgb(4,4,180);"
   id="path46" />
            </g>
            <g
   transform="matrix(-0.10919,0.118935,0.118935,0.10919,46051.4,32154.7)"
   id="g52">
                <path
   d="M121.784,-248.653C117.474,-257.006 112.078,-265.442 105.082,-273.979C105.082,-273.979 30.703,-60.384 121.784,74.999C125.292,74.037 128.873,72.945 132.484,71.751C62.95,-44.26 106.796,-208.75 121.784,-248.653"
   style="fill:rgb(52,9,74);"
   id="path50" />
            </g>
            <g
   transform="matrix(-58.233,-58.1852,-58.1852,58.233,46063.9,32158)"
   id="g56">
                <path
   d="M1.082,0.138C1.082,0.138 0.977,0.347 0.766,0.35C0.726,0.337 0.691,0.322 0.664,0.308C0.664,0.308 0.252,0.144 -0.021,0.312C0.227,0.137 0.109,0.014 0.221,-0.135C0.432,-0.151 0.649,-0.027 0.822,0.082C0.923,0.146 1.016,0.198 1.062,0.161C1.07,0.154 1.077,0.147 1.083,0.138L1.082,0.138Z"
   style="fill:url(#_Linear3);fill-rule:nonzero;"
   id="path54" />
            </g>
            <g
   transform="matrix(0.161456,0,0,0.161456,46007.4,32157)"
   id="g60">
                <path
   d="M0,-122.124C-14.828,-126.723 -32.823,-134.063 -51.988,-143.452C-83.38,-175.673 -95.113,-214.281 -98.152,-248.311C-2.351,-193.464 220.406,-168.362 273.893,-29.348C250.959,3.876 231.164,42.145 245.776,126.187C207.645,-32.464 0,-122.124 0,-122.124"
   style="fill:rgb(255,156,0);"
   id="path58" />
            </g>
            <g
   transform="matrix(0.161456,0,0,0.161456,45999.8,32103)"
   id="g64">
                <path
   d="M0,193.35C-1.708,192.538 -3.424,191.707 -5.148,190.863C-80.226,113.795 -42.921,0.143 -42.921,0.143L-42.889,0C-43.975,5.392 -44.303,10.626 -43.759,15.651C-42.655,25.983 -35.636,34.532 -24.459,41.858C-24.459,41.858 -56.63,114.572 0,193.35"
   style="fill:rgb(61,23,10);"
   id="path62" />
            </g>
            <g
   transform="matrix(7.46498,66.8345,66.8345,-7.46498,45984.6,32063)"
   id="g68">
                <path
   d="M0.605,-0.222C0.74,-0.316 0.952,-0.09 1.07,0.095C0.866,-0.063 0.605,0.056 0.605,0.056C0.484,0.094 0.348,0.303 0.282,0.446C0.296,0.266 0.439,-0.108 0.605,-0.222Z"
   style="fill:url(#_Linear4);fill-rule:nonzero;"
   id="path66" />
            </g>
            <g
   transform="matrix(0.153844,0.0489897,0.0489897,-0.153844,45990.5,32133)"
   id="g72">
                <path
   d="M51.398,11.476C7.554,17.97 -43.769,31.358 -83.538,51.084C-143.355,189.836 -21.309,315.248 51.398,370.688C8.024,321.34 -48.347,234.114 -42.462,181.743C-42.462,181.743 -43.523,62.129 51.398,11.476"
   style="fill:rgb(2,27,140);"
   id="path70" />
            </g>
            <g
   transform="matrix(-57.5167,18.3176,18.3176,57.5167,46094.2,32091.5)"
   id="g76">
                <path
   d="M0.637,-0.429C0.521,-0.297 0.37,-0.063 0.386,0.077C0.386,0.077 0.383,0.397 0.637,0.532C0.395,0.496 0.069,0.382 0.102,0.203C0.144,-0.018 0.459,-0.333 0.637,-0.429Z"
   style="fill:url(#_Linear5);fill-rule:nonzero;"
   id="path74" />
            </g>
            <g
   transform="matrix(0.161456,0,0,0.161456,46066.5,32103)"
   id="g80">
                <path
   d="M0,193.35C1.701,192.538 3.418,191.707 5.152,190.863C80.218,113.795 42.915,0.143 42.915,0.143L42.883,0C43.97,5.392 44.298,10.626 43.761,15.651C42.646,25.983 35.631,34.532 24.453,41.858C24.453,41.858 56.631,114.572 0,193.35"
   style="fill:rgb(61,23,10);"
   id="path78" />
            </g>
            <g
   transform="matrix(-0.1386,0.0828124,0.0828124,0.1386,46039.5,32172.8)"
   id="g84">
                <path
   d="M67.654,-203.17C19.069,-99.162 88.395,11.377 88.395,11.377C76.895,26.335 67.654,36.763 67.654,36.763C67.654,36.763 -20.974,-81.859 69.155,-229.077C69.005,-220.336 68.346,-211.756 67.654,-203.17"
   style="fill:rgb(17,79,237);"
   id="path82" />
            </g>
            <g
   transform="matrix(0.153842,-0.048995,-0.048995,-0.153842,46075.8,32133)"
   id="g88">
                <path
   d="M-51.404,11.474C-7.559,17.968 43.761,31.354 83.524,51.081C143.347,189.831 21.305,315.246 -51.404,370.69C-8.031,321.341 48.34,234.113 42.453,181.741C42.453,181.741 43.508,62.128 -51.404,11.474"
   style="fill:rgb(162,50,11);"
   id="path86" />
            </g>
            <g
   transform="matrix(0.161456,0,0,0.161456,46007.4,32173.9)"
   id="g92">
                <path
   d="M0,-226.983C-14.828,-231.582 -32.823,-238.922 -51.988,-248.311C31.501,-218.644 90.057,-192.652 159.12,-128.062C192.538,-96.821 223.294,-58.748 241.379,-14.392C242.107,-3.465 243.523,8.374 245.776,21.328C207.645,-137.323 0,-226.983 0,-226.983"
   style="fill:white;"
   id="path90" />
            </g>
            <g
   transform="matrix(0.161456,0,0,0.161456,45999,32078.5)"
   id="g96">
                <path
   d="M0,342.277C-4.623,340.018 -9.32,337.631 -14.052,335.135C-77.311,258.601 -43.057,154.204 -43.057,154.204C-32.773,102.515 47.41,36.507 103.712,2.647C102.362,2.897 100.989,3.172 99.601,3.467C102.809,2.244 105.948,1.09 108.994,0C52.691,33.86 -27.489,99.869 -37.772,151.557C-37.772,151.557 -75.077,265.21 0,342.277"
   style="fill:rgb(255,255,203);"
   id="path94" />
            </g>
            <g
   transform="matrix(0.161456,0,0,0.161456,46067.3,32078.5)"
   id="g100">
                <path
   d="M0,342.278C4.623,340.01 9.311,337.623 14.043,335.135C77.305,258.592 43.048,154.195 43.048,154.195C32.773,102.513 -47.416,36.508 -103.712,2.638C-102.372,2.898 -100.998,3.173 -99.609,3.465C-102.814,2.245 -105.955,1.088 -109.003,0C-52.701,33.861 27.48,99.869 37.764,151.557C37.764,151.557 75.077,265.201 0,342.278"
   style="fill:rgb(255,255,203);"
   id="path98" />
            </g>
        </g>
    </g>
    <defs
   id="defs137">
        <linearGradient
   id="_Linear1"
   x1="0"
   y1="0"
   x2="1"
   y2="0"
   gradientUnits="userSpaceOnUse"
   gradientTransform="matrix(1,0,0,-1,0,-0.043036)"><stop
     offset="0"
     style="stop-color:rgb(0,255,255);stop-opacity:1"
     id="stop106" /><stop
     offset="0.74"
     style="stop-color:rgb(1,49,184);stop-opacity:1"
     id="stop108" /><stop
     offset="1"
     style="stop-color:rgb(153,0,56);stop-opacity:1"
     id="stop110" /></linearGradient>
        <linearGradient
   id="_Linear2"
   x1="0"
   y1="0"
   x2="1"
   y2="0"
   gradientUnits="userSpaceOnUse"
   gradientTransform="matrix(-0.858391,-0.512996,-0.512996,0.858391,1.44527,0.398958)"><stop
     offset="0"
     style="stop-color:rgb(0,255,255);stop-opacity:1"
     id="stop113" /><stop
     offset="0.83"
     style="stop-color:rgb(1,49,184);stop-opacity:1"
     id="stop115" /><stop
     offset="1"
     style="stop-color:rgb(153,0,56);stop-opacity:1"
     id="stop117" /></linearGradient>
        <linearGradient
   id="_Linear3"
   x1="0"
   y1="0"
   x2="1"
   y2="0"
   gradientUnits="userSpaceOnUse"
   gradientTransform="matrix(1,0,0,-1,0,0.199593)"><stop
     offset="0"
     style="stop-color:rgb(255,255,0);stop-opacity:1"
     id="stop120" /><stop
     offset="1"
     style="stop-color:rgb(255,0,0);stop-opacity:1"
     id="stop122" /></linearGradient>
        <linearGradient
   id="_Linear4"
   x1="0"
   y1="0"
   x2="1"
   y2="0"
   gradientUnits="userSpaceOnUse"
   gradientTransform="matrix(0.931213,-0.364476,-0.364476,-0.931213,0.0535539,0.28376)"><stop
     offset="0"
     style="stop-color:rgb(0,255,255);stop-opacity:1"
     id="stop125" /><stop
     offset="0.59"
     style="stop-color:rgb(1,49,184);stop-opacity:1"
     id="stop127" /><stop
     offset="1"
     style="stop-color:rgb(153,0,56);stop-opacity:1"
     id="stop129" /></linearGradient>
        <linearGradient
   id="_Linear5"
   x1="0"
   y1="0"
   x2="1"
   y2="0"
   gradientUnits="userSpaceOnUse"
   gradientTransform="matrix(-0.213772,0.976883,0.976883,0.213772,0.519782,-0.418338)"><stop
     offset="0"
     style="stop-color:rgb(255,255,0);stop-opacity:1"
     id="stop132" /><stop
     offset="1"
     style="stop-color:rgb(255,0,0);stop-opacity:1"
     id="stop134" /></linearGradient>
    </defs>
</svg>
